<svg xmlns="http://www.w3.org/2000/svg" width="16" height="16"><path style="stroke:none;fill-rule:evenodd;fill:#72706f;fill-opacity:1" d="M7.523438 1.105469c-.089844.496093-.1875 1.089843-.183594 1.09375.019531.007812.191406.035156.195312.027343.003906-.003906.039063-.199218.082032-.433593.039062-.234375.074218-.425781.078124-.421875 0 0 .015626.203125.035157.449218.019531.300782.035156.449219.039062.453126.015625.007812.203125.039062.207031.035156.003907-.003906.085938-.191406.1875-.417969.101563-.226563.1875-.414063.1875-.410156 0 0-.03125.195312-.074218.429687-.039063.234375-.074219.433594-.070313.4375.003907.011719.1875.042969.195313.03125.011718-.011718.199218-1.097656.191406-1.105468-.007812-.007813-.324219-.0625-.328125-.058594 0 .003906-.074219.164062-.164063.363281-.140624.308594-.164062.355469-.171874.335937-.003907-.023437-.066407-.722656-.066407-.761718 0-.007813-.023437-.015625-.109375-.03125-.0625-.011719-.136718-.023438-.167968-.03125l-.058594-.007813-.003906.023438m-1.890626.046875c-.007812 0-.042968.007812-.074218.015625-.132813.03125-.234375.101562-.28125.199219-.03125.0625-.035156.175781-.003906.238281.023437.054687.089843.125.140624.148437.050782.027344.160157.050782.265626.058594.199218.015625.265624.03125.289062.082031.042969.078125-.015625.179688-.128906.214844-.066406.023437-.160156.023437-.207032 0-.042968-.023437-.085937-.074219-.109374-.121094-.015626-.039062-.003907-.039062-.140626 0-.074218.019531-.078124.023438-.078124.042969 0 .011719.011718.042969.023437.066406.089844.179688.242187.25.464844.214844.160156-.023438.273437-.074219.339843-.15625.109376-.128906.097657-.328125-.019531-.453125-.070312-.070313-.164062-.097656-.390625-.117187-.175781-.011719-.226562-.027344-.25-.074219-.019531-.035157-.015625-.0625.007813-.09375.050781-.058594.1875-.097657.265625-.078125.042968.011718.089844.050781.109375.09375.007812.023437.015625.035156.027343.03125.003907-.003906.046876-.011719.09375-.023438.105469-.023437.109376-.023437.109376-.039062 0-.03125-.0625-.136719-.09375-.167969-.019532-.015625-.0625-.042969-.09375-.058594-.050782-.023437-.0625-.023437-.152344-.027343-.050782 0-.105469 0-.113282.003906M9.03125 1.4375c-.113281.285156-.398438 1.039062-.394531 1.039062.011719.011719.792969.304688.796875.300782.007812-.007813.070312-.164063.066406-.167969 0 0-.132812-.050781-.292969-.113281-.160156-.0625-.292969-.113282-.292969-.113282-.003906-.003906.09375-.265624.105469-.28125.003907-.007812.089844.019532.265625.089844.144532.054688.265625.097656.269532.09375.003906-.007812.066406-.164062.0625-.167968 0 0-.113282-.042969-.25-.097657-.136719-.050781-.253907-.097656-.261719-.101562-.015625-.007813-.011719-.019531.03125-.125.023437-.0625.046875-.117188.050781-.113281.003906 0 .132812.046874.285156.105468.152344.058594.277344.109375.277344.109375.003906 0 .066406-.171875.0625-.175781-.003906-.003906-.765625-.300781-.773438-.300781 0 0-.003906.007812-.007812.019531m-4.761719.128906c-.050781.019532-.09375.035156-.097656.039063-.003906.003906.386719 1.046875.398437 1.058593 0 .003907.199219-.074218.203126-.078124.007812-.007813-.398438-1.058594-.40625-1.058594-.003907 0-.050782.019531-.097657.039062m-1.015625.519532c-.191406.117187-.359375.226562-.378906.238281-.035156.023437-.039062.015625.03125.121093l.035156.058594.140625-.089844c.078125-.050781.144531-.089843.144531-.085937 0 0 .109376.175781.242188.386719.128906.214844.242188.394531.25.398437.007812.011719.023438.003907.101562-.042969.050782-.03125.09375-.058593.09375-.0625 0 0-.109374-.179687-.246093-.402343-.136719-.21875-.25-.402344-.25-.402344.003906 0 .0625-.039063.136719-.085937.074218-.042969.136718-.085938.136718-.089844.003906-.007813-.074218-.148438-.089844-.15625 0 0-.160156.09375-.347656.214844m6.757813.160156c-.234375.375-.269531.449218-.277344.546875-.007813.078125.015625.160156.066406.226562.066407.09375.242188.207031.363281.238281.0625.015626.152344.011719.203126-.011718.101562-.042969.152343-.109375.40625-.519532l.1875-.296874L10.875 2.375c-.046875-.03125-.089844-.058594-.097656-.058594-.003906-.003906-.066406.082032-.171875.253906-.277344.449219-.285157.460938-.359375.476563-.128906.03125-.300782-.109375-.285156-.238281.007812-.054688.03125-.101563.242187-.4375.101563-.167969.183594-.304688.183594-.304688-.011719-.007812-.183594-.113281-.1875-.113281 0 0-.085938.132813-.1875.292969m-3.554688-.140625c0 .113281 0 .113281.019531.105469.007813 0 .054688-.003907.105469-.003907h.085938v-.210937h-.210938v.109375m-1.445312.167969c-.046875.015624-.089844.03125-.089844.03125-.003906.003906.0625.199218.066406.199218.007813 0 .050781-.011718.105469-.03125l.09375-.03125-.03125-.097656c-.019531-.0625-.035156-.097656-.042969-.101562-.007812 0-.050781.015624-.101562.03125m-.832031.347656-.097657.042968.027344.050782c.015625.027344.035156.074218.046875.097656l.019531.046875.195313-.09375-.046875-.09375c-.027344-.050781-.046875-.09375-.046875-.097656-.003906 0-.046875.019531-.097656.046875m4.359374.039062c.296876.101563.492188.183594.746094.316406.425782.21875.78125.460938 1.179688.808594.113281.097656.378906.371094.507812.523438.417969.484375.753906 1.046875.972656 1.628906.03125.078125.058594.152344.0625.164062.007813.015626.007813.019532-.042968.019532-.03125.003906-.003906.003906.058594.003906.066406 0 .097656 0 .078124-.003906-.039062-.003906-.039062-.003906-.058593-.058594-.089844-.246094-.148438-.382812-.257813-.601562-.078125-.160157-.089844-.179688-.148437-.285157-.367188-.640625-.867188-1.210937-1.441407-1.652343-.433593-.332032-.898437-.589844-1.40625-.785157-.125-.046875-.378906-.132812-.394531-.132812-.007812 0 .058594.023437.144531.054687m-6.394531.265625c-.042969.042969-.078125.078125-.078125.082031 0 .003907.621094.679688.738282.800782l.027343.027344.164063-.15625-.351563-.378907c-.191406-.207031-.367187-.390625-.386719-.410156l-.035156-.039063-.078125.074219m9.0625 0c-.210937.058594-.425781.277344-.480469.492188-.042968.167969 0 .328125.117188.457031.160156.171875.347656.214844.542969.128906.082031-.039062.082031-.035156.03125-.125-.074219-.132812-.058594-.121094-.125-.085937-.109375.054687-.203125.046875-.285157-.027344-.023437-.019531-.046874-.050781-.0625-.085937-.0625-.128907-.011718-.265626.160157-.433594.125-.117188.234375-.15625.339843-.113282.054688.019532.117188.070313.148438.125.019531.035157.023438.050782.023438.113282 0 .050781-.003907.078125-.015626.097656l-.015624.027344.101562.054687c.054688.03125.101562.054688.101562.050781.003907-.003906.015626-.035156.03125-.074218.0625-.195313-.023437-.402344-.21875-.53125-.085937-.058594-.152343-.078125-.253906-.082032-.066406 0-.109375 0-.140625.011719m-8.101562.382813c-.042969.03125-.078125.0625-.078125.0625-.003906.003906.121094.167968.128906.167968.003906 0 .039062-.027343.085938-.0625l.082031-.066406-.0625-.082031c-.035157-.042969-.066407-.082031-.070313-.082031-.003906 0-.042968.027344-.085937.0625m8.953125.621094c-.097656.019531-.21875.078124-.320313.152343-.101562.078125-.164062.160157-.207031.269531-.019531.050782-.023438.070313-.023438.164063 0 .097656 0 .109375.023438.171875.054688.128906.148438.242188.253906.292969.066406.03125.15625.046875.21875.039062.066406-.007812.132813-.023437.136719-.03125.003906-.003906-.046875-.199219-.054687-.210937-.003907-.003906-.023438 0-.046876.007812-.058593.015625-.148437.011719-.195312-.011718-.046875-.023438-.085938-.066407-.113281-.117188-.019531-.035156-.019531-.054688-.019531-.113281 0-.0625 0-.082031.019531-.113281.058593-.113282.273437-.261719.410156-.289063.15625-.027344.308594.101563.304687.265625 0 .046875-.019531.101562-.050781.148438-.015625.015624-.011719.019531.070313.09375l.082031.078124.03125-.039062c.058594-.085938.082031-.148438.082031-.25 0-.101562-.039062-.207031-.113281-.308594-.113281-.152344-.308594-.234375-.488281-.199218m.382812 1.164062c-.269531.136719-.496094.253906-.496094.257812-.003906.003907.082032.1875.09375.199219 0 0 .226563-.113281.503907-.253906l.5-.257813-.046875-.101562c-.027344-.054688-.054688-.097656-.058594-.097656-.003906 0-.226562.113281-.496094.253906m-11.949218.125c.882812.59375 1.394531.992188 1.996093 1.5625.164063.160156.308594.3125.441407.480469.058593.074219.109374.132812.113281.132812.011719 0 .210937.25.3125.390625.1875.265625.332031.527344.429687.78125.015625.039063.035156.09375.046875.117188.042969.105468.09375.320312.117188.476562.019531.113282.015625.484375-.003907.589844-.046874.253906-.121093.453125-.253906.679688l-.054687.09375.0625-.066407c.148437-.144531.335937-.386719.445312-.566406.070313-.121094.183594-.339844.1875-.371094.003907-.015625.015625-.058593.03125-.097656.035157-.089844.0625-.195313.082031-.292969.019532-.105468.019532-.40625 0-.519531-.039062-.203125-.128906-.523437-.148437-.53125-.007813 0-.019531-.019531-.027344-.039063-.046875-.164062-.199219-.464843-.339843-.679687-.117188-.179687-.390626-.53125-.414063-.535156-.007813-.003907-.058594-.0625-.113281-.128907-.269532-.339843-.574219-.652343-.941406-.960937-.070313-.0625-.097657-.082031-.128907-.089844C2 5.5625.808594 5.207031.371094 5.058594c-.113282-.035156-.207032-.066406-.210938-.066406-.003906 0 .144532.101562.332032.226562m10.984374.90625c.027344.003906.074219.003906.105469 0H11.476562m3.105469.445312c-.375.027344-.441406.035157-.472656.046876-.453125.207031-1.417969.691406-2.601563 1.304687-1.3125.679687-2.128906 1.085937-2.816406 1.394531-1.835937.828125-3.460937 1.320313-5.1875 1.570313l-.15625.023437-.15625.15625c-.15625.148438-.28125.261719-.417968.359375-.085938.0625-.097657.078125-.046876.074219.835938-.113281 1.269532-.1875 1.753907-.296875 1.0625-.234375 2.109375-.589844 3.328125-1.128906.949218-.421875 1.660156-.769531 3.402344-1.675781.914062-.472657 1.101562-.566407 1.105468-.550782.011719.023438-.011718.5-.027344.667969-.125 1.183594-.605468 2.269531-1.402343 3.15625-.28125.316406-.675781.660156-1.023438.890625-.121093.082031-.285156.1875-.34375.21875-.300781.164062-.425781.226562-.671875.328125-.082031.03125-.222656.082031-.308594.113281-.085937.027344-.148437.054688-.144531.054688.019531 0 .332031-.109375.476563-.164063.9375-.375 1.785156-1.019531 2.386718-1.832031.617188-.828125.980469-1.765625 1.082032-2.800781.019531-.160157.035156-.546875.027344-.617188-.007813-.046875-.003907-.050781.015624-.0625.03125-.019531.71875-.359375.976563-.480469.691406-.328124 1.292969-.59375 1.683594-.738281.054687-.019531.101562-.039062.101562-.042969.011719-.007812-.164062.003907-.5625.03125M12.46875 8.863281c-.007812.023438-.183594.804688-.179688.808594.007813.007813 1.089844.253906 1.09375.246094.003907-.003907.195313-.828125.191407-.832031 0 0-.039063-.011719-.089844-.023438l-.089844-.019531-.070312.308593c-.039063.167969-.070313.304688-.074219.308594-.003906.007813-.289062-.0625-.292969-.074218-.003906-.003907.023438-.125.054688-.269532.03125-.144531.058593-.265625.058593-.269531 0-.015625-.164062-.054687-.175781-.042969-.003906.003906-.03125.128906-.066406.273438-.035156.148437-.0625.269531-.0625.269531-.003906.003906-.058594-.007813-.121094-.023437-.085937-.019532-.121093-.03125-.121093-.039063s.027343-.136719.0625-.285156c.035156-.148438.0625-.28125.066406-.289063 0-.015625-.007813-.019531-.082032-.035156-.101562-.023438-.09375-.023438-.101562-.011719m-.230469.914063c-.058593.140625-.289062.722656-.289062.726562 0 .007813.039062.027344.085937.042969l.082032.035156.074218-.1875c.042969-.101562.085938-.210937.101563-.246093.011719-.03125.023437-.054688.027343-.050782 0 0 .105469.1875.230469.414063l.222657.410156.097656.039063c.050781.023437.09375.039062.09375.039062.007812-.015625.335937-.835938.335937-.847656.003907-.007813-.160156-.082032-.164062-.074219-.003907 0-.054688.132813-.121094.292969-.0625.15625-.117187.289062-.121094.292968-.003906.003907-.113281-.1875-.242187-.425781l-.234375-.429687-.078125-.03125c-.039063-.015625-.078125-.03125-.082032-.03125-.003906 0-.011718.011718-.019531.03125m-.367187.886718c-.03125.046876-.054688.085938-.054688.089844 0 .003906.140625.097656.3125.207032.167969.113281.308594.207031.308594.207031-.003906.003906-.59375-.007813-.777344-.015625l-.101562-.007813-.058594.089844c-.03125.050781-.058594.09375-.058594.097656 0 .003907.648438.433594.925782.609375.019531.011719.019531.007813.066406-.066406.027344-.042969.054687-.082031.058594-.089844.003906-.003906-.09375-.074218-.304688-.210937-.167969-.109375-.304688-.203125-.304688-.203125.003907 0 .195313.003906.433594.007812.238282.003906.429688.011719.429688.007813.007812 0 .121094-.183594.121094-.1875 0-.003907-.160157-.109375-.355469-.238281-.195313-.128907-.40625-.265626-.472657-.308594l-.113281-.074219-.054687.085937m-.800782 1.105469c-.148437.179688-.269531.324219-.265624.324219 0 0 .1875.160156.417968.351562.230469.195313.425782.355469.433594.363282.011719.007812.042969-.023438.277344-.304688.144531-.175781.269531-.324218.273437-.332031.011719-.011719.003907-.019531-.058593-.074219l-.070313-.058594-.203125.238282c-.109375.132812-.203125.242187-.207031.242187 0 0-.042969-.03125-.089844-.074219-.050781-.039062-.101563-.082031-.117187-.097656-.023438-.019531-.027344-.023437-.015626-.039062.003907-.007813.085938-.105469.179688-.21875l.171875-.203125-.070313-.0625c-.042968-.03125-.078124-.058594-.082031-.054688 0 .003907-.082031.101563-.179687.21875-.097656.117188-.175782.210938-.179688.210938-.003906 0-.1875-.15625-.1875-.160157 0-.003906.085938-.113281.195313-.238281.105469-.128906.1875-.238281.1875-.238281-.03125-.027344-.132813-.109375-.136719-.109375-.003906 0-.128906.140625-.273438.316406m-.472656.507813c-.023437.011718-.074218.039062-.105468.058594-.074219.050781-.472657.375-.46875.382812 0 .003906.160156.203125.351562.445312.234375.289063.355469.433594.363281.429688.007813-.011719.160157-.132812.164063-.132812 0-.003907-.066406-.085938-.148438-.1875l-.148437-.1875.019531-.015626c.011719-.007812.042969-.03125.070312-.046874.078126-.054688.113282-.050782.457032.058593.078125.023438.144531.042969.148437.042969.011719 0 .195313-.144531.203125-.160156.003906-.003906-.0625-.03125-.144531-.058594-.25-.089844-.265625-.09375-.367187-.09375h-.089844c0-.003906.011718-.019531.027344-.035156.046874-.050782.070312-.117188.074218-.195313 0-.0625 0-.074219-.023437-.125-.03125-.070312-.097657-.136719-.160157-.167969-.070312-.035156-.15625-.039062-.222656-.011718m.03125.210937c-.015625.003907-.039062.015625-.054687.023438-.03125.019531-.230469.179687-.25.199219-.011719.007812.003906.03125.070312.113281.042969.054687.085938.105469.089844.113281.011719.007812.027344-.003906.109375-.066406.136719-.117188.191406-.171875.199219-.207032.027343-.09375-.070313-.199218-.164063-.175781m-.847656.363281c-.046875.03125-.089844.058594-.089844.0625-.003906.003907.601563.945313.613282.945313.003906.003906.164062-.09375.183593-.113281.003907-.003906-.609375-.953125-.613281-.953125-.003906 0-.046875.027343-.09375.058593m-.523438.28125c-.1875.089844-.34375.160157-.347656.164063-.003906 0 .101563.234375.230469.515625l.238281.515625.035156-.015625c.019532-.007812.0625-.03125.101563-.046875l.070313-.035156-.101563-.214844c-.054687-.117187-.101563-.21875-.101563-.21875 0-.003906.097657-.050781.210938-.105469.117188-.050781.210938-.097656.210938-.101562 0-.003906-.015626-.042969-.035157-.085938l-.039062-.082031-.042969.019531c-.027344.011719-.121094.054688-.210938.097656-.089843.042969-.164062.078126-.171874.078126-.003907 0-.097657-.191407-.109376-.230469-.003906-.011719.027344-.03125.234376-.128907.132812-.058593.242187-.113281.246093-.117187.003907-.007813-.066406-.167969-.074219-.167969 0 0-.15625.070313-.34375.160156"/><path style="stroke:none;fill-rule:evenodd;fill:#f8c300;fill-opacity:1" d="M15.234375 6.082031c-.359375.113281-.703125.222657-6.425781 2.015625C6.386719 8.859375 4.390625 9.488281 4.375 9.492188c-.023438.007812-.035156.023437-.097656.152343-.226563.457031-.507813.792969-.976563 1.171875-.074219.0625-.132812.113282-.132812.113282.003906.007812.460937-.058594.738281-.105469 1.578125-.265625 3.085938-.742188 4.785156-1.507813.6875-.308594 1.503906-.714844 2.816406-1.394531C12.5 7.40625 13.3125 6.996094 13.765625 6.78125c.636719-.300781 1.160156-.535156 1.644531-.734375.21875-.085937.210938-.085937-.175781.035156"/><path style="stroke:none;fill-rule:evenodd;fill:#00923f;fill-opacity:1" d="M13.683594 6.324219c-1.015625.191406-3.539063.667969-5.609375 1.054687-2.066407.386719-3.757813.707032-3.761719.707032 0 0 .011719.054687.03125.117187.097656.3125.117188.421875.117188.667969 0 .167968-.003907.203125-.019532.289062-.023437.097656-.0625.226563-.09375.3125-.019531.042969-.019531.046875-.003906.035156C4.351562 9.5 6.128906 8.9375 8.292969 8.261719c4.808593-1.511719 7.1875-2.257813 7.230469-2.273438.019531-.003906.027343-.011719.019531-.011719-.003907 0-.84375.15625-1.859375.347657"/><path style="stroke:none;fill-rule:evenodd;fill:#007cc3;fill-opacity:1" d="M13.960938 6.078125c-.824219.058594-2.601563.1875-3.949219.285156-1.34375.09375-3.351563.238281-4.457031.316407-1.109376.082031-2.015626.144531-2.019532.144531-.003906 0 .03125.050781.082032.113281.324218.402344.507812.707031.636718 1.050781.019532.046875.035156.089844.035156.089844.003907.003906 5.550782-1.035156 7.589844-1.417969.257813-.050781 1.175782-.222656 2.03125-.382812.859375-.160156 1.578125-.296875 1.597656-.300782l.03125-.007812h-.035156c-.023437 0-.714844.050781-1.542968.109375"/><path style="stroke:none;fill-rule:evenodd;fill:#da251d;fill-opacity:1" d="M.636719 4.421875c.003906.003906.222656.152344.484375.332031.527344.359375.695312.476563.914062.640625.566406.421875 1.007813.84375 1.371094 1.304688l.101562.125.046876-.003907c.023437-.003906 1.035156-.074218 2.242187-.160156 8.367187-.597656 8.175781-.582031 7.394531-.554687-1.058594.035156-2.375.023437-3.53125-.03125-3.363281-.164063-6.488281-.734375-8.933594-1.625-.054687-.019531-.09375-.03125-.089843-.027344"/><path style="stroke:none;fill-rule:evenodd;fill:#dededd;fill-opacity:1" d="M6.503906 1.992188c.023438.003906.066406.003906.089844 0 .023438 0 .003906-.003907-.046875-.003907-.046875 0-.066406.003907-.042969.003907m-.058594.390624c-.277343.023438-.453124.042969-.652343.078126-1.128907.207031-2.160157.757812-2.964844 1.582031-.242187.25-.417969.46875-.621094.761719l-.070312.097656.101562.03125c.96875.265625 1.769531.449218 2.753907.621094 1.410156.253906 2.9375.421874 4.503906.507812.695312.035156 1.15625.046875 1.894531.054688l.621094.007812-.007813-.023438c-.011718-.035156-.097656-.265624-.136718-.355468-.242188-.570313-.621094-1.152344-1.050782-1.613282-.445312-.472656-.933594-.84375-1.496094-1.136718-.394531-.207032-.878906-.386719-1.277343-.476563-.0625-.011719-.082031-.019531-.070313-.023437.007813-.007813 0-.007813-.023437-.003906-.027344.003906-.035157 0-.019531-.003907.011718-.007812.007812-.007812-.023438-.003906-.027344 0-.03125 0-.019531-.003906.011719-.007813.007812-.007813-.023438-.007813-.027343.003906-.03125.003906-.019531-.003906.011719-.003906.007812-.007812-.023438-.003906s-.039062.003906-.027343-.003906c.011719-.003907.007812-.007813-.019531-.003907-.03125.003907-.035157.003907-.027344-.003906.011718-.007813.003906-.007813-.023438-.003906-.03125.003906-.035156.003906-.027344-.003907.011719-.007812.003907-.007812-.023437-.003906s-.035156 0-.027344-.003906c.011719-.007812.003907-.011719-.023437-.007812-.019532 0-.035156 0-.035156-.003907-.003907-.003906-.082032-.015625-.175782-.023437-.148437-.015625-.230468-.019532-.550781-.019532-.207031-.003906-.390625-.003906-.414063 0m2.871094.582032c.066406.035156.125.0625.125.0625.003906-.003906-.230468-.125-.242187-.125-.003907 0 .050781.03125.117187.0625m.734375.441406c0 .003906.050781.042969.113281.089844.0625.046875.164063.125.222657.175781.058593.050781.101562.085937.097656.082031-.007813-.015625-.195313-.171875-.308594-.257812-.058593-.042969-.109375-.082032-.113281-.085938-.007812-.003906-.011719-.007812-.011719-.003906m.523438.425781c.003906 0 .082031.082031.171875.175781.09375.09375.210937.21875.257812.273438.046875.054688.089844.097656.089844.097656.003906 0-.003906-.007812-.015625-.023437-.011719-.011719-.0625-.070313-.113281-.128907-.074219-.082031-.40625-.421874-.390625-.394531M11.1875 4.5c.046875.066406.089844.117188.09375.117188.003906 0-.117188-.15625-.15625-.199219-.015625-.019531.011719.019531.0625.082031m.167969.230469c.03125.054687.203125.300781.175781.253906-.015625-.035156-.160156-.246094-.171875-.257813-.011719-.007812-.011719-.007812-.003906.003907m.191406.289062c.007813.011719.035156.058594.066406.109375.027344.050782.050781.09375.054688.09375.003906 0-.007813-.03125-.070313-.132812C11.566406 5.042969 11.542969 5 11.539062 5c-.003906 0 0 .007812.007813.019531m-9.691406.378907c-.027344.050781-.050781.097656-.046875.097656.003906.003906.53125.148437.535156.144531.003906 0-.160156-.128906-.324219-.25l-.117187-.089844-.046875.097657m9.929687.054687c.039063.074219.066406.128906.070313.128906.003906-.003906-.125-.257812-.128907-.257812-.003906 0 .023438.058593.058594.128906m.113282.242187c.046874.113282.089843.203126.089843.203126.003907-.003907-.082031-.210938-.085937-.210938-.003906 0-.003906.003906-.003906.007812m-10.328126.300782c.015626.015625.011719.019531-.007812.085937-.167969.472657-.269531.96875-.304688 1.480469-.011718.167969-.011718.59375 0 .757812.054688.75.238282 1.441407.5625 2.09375.582032 1.171876 1.53125 2.085938 2.71875 2.617188.535157.242188 1.109376.390625 1.730469.453125.179688.019531.730469.027344.917969.015625.179688-.015625.398438-.039062.394531-.042969 0-.003906.011719-.003906.03125-.003906.023438.003906.03125 0 .027344-.003906 0-.007813.007813-.007813.03125-.007813.027344.003906.035156.003906.019531-.003906-.011718-.003906-.003906-.007812.027344-.003906s.035156.003906.023438-.003906c-.011719-.007813-.003907-.007813.027343-.003907.03125.003907.035157 0 .023438-.003906-.011719-.007813-.007813-.007813.019531-.003906.03125.003906.035156 0 .023438-.003907-.011719-.007812-.007813-.007812.019531-.003906.023437 0 .035156 0 .027343-.003906-.015624-.011719.074219-.027344.109376-.023438.019531.003907.023437.003907.011718-.003906-.011718-.003906.003906-.007812.050782-.019531.566406-.132813 1.148437-.375 1.660156-.699219.464844-.292968.847656-.625 1.246094-1.074218.179687-.199219.457031-.589844.605468-.847657.40625-.714843.644532-1.464843.726563-2.285156.011719-.152344.027343-.609375.015625-.609375-.007813 0-.53125.265625-1.089844.558594-1.714844.886718-2.351562 1.199218-3.375 1.660156-1.414062.632812-2.722656 1.050781-4.003906 1.273438-.300782.050781-1.148438.175781-1.15625.167968-.003906 0 0-.003906.007812-.007812.003906-.003906.011719-.011719.011719-.015625 0-.003907.039063-.035157.085937-.070313.164063-.121094.398438-.332031.496094-.441406l.042969-.054688-.054687.007813c-.03125 0-.070313.007813-.085938.007813-.035156.007812-.035156.003906.046875-.058594.105469-.082032.15625-.125.289063-.242188.085937-.078125.105468-.101562.152343-.179687.09375-.15625.152344-.28125.191407-.402344.132812-.40625.128906-.8125-.007813-1.265625-.015625-.054688-.035156-.109375-.042969-.121094-.003906-.011718-.023437-.0625-.042968-.109375-.078126-.222656-.238282-.511719-.421876-.765625-.097656-.136718-.289062-.375-.304687-.382812-.007813 0-.039063-.03125-.066406-.066406C2.753906 7.039062 2.4375 6.71875 2 6.347656c-.136719-.121094-.453125-.375-.429688-.351562M12.375 7.9375c0 .046875 0 .070312.003906.042969v-.085938C12.375 7.867188 12.375 7.886719 12.375 7.9375m-.285156 1.75c-.015625.050781-.027344.097656-.027344.097656 0 .003906.015625-.039062.035156-.089844.015625-.054687.027344-.097656.027344-.097656 0-.003906-.015625.039063-.035156.089844m-.304688.742188c-.03125.0625-.054687.113281-.050781.113281.003906 0 .117187-.222657.113281-.226563-.003906 0-.03125.050782-.0625.113282m-.214844.394531c-.066406.113281-.21875.335937-.3125.460937-.050781.070313-.089843.121094-.085937.121094.039063-.023438.460937-.640625.4375-.640625-.003906 0-.019531.023437-.039063.058594m-.566406.777343c-.0625.070313-.097656.109376-.085937.101563.007812-.003906.132812-.140625.125-.140625 0 0-.019531.019531-.039063.039062m-.269531.285157c-.09375.09375-.222656.214843-.28125.265625-.140625.117187-.179687.15625-.09375.085937.109375-.089843.289063-.25.425781-.390625.070313-.074218.128906-.132812.125-.132812 0 0-.082031.078125-.175781.171875m-.488281.4375c-.023438.015625-.082032.058593-.128906.097656-.050782.035156-.09375.070313-.09375.070313 0 .007812.066406-.039063.175781-.125.074219-.058594.09375-.074219.085937-.074219 0 0-.019531.011719-.039062.03125m-.371094.265625c-.125.082031-.171875.117187-.136719.097656.035157-.019531.277344-.183594.277344-.1875 0-.007812.011719-.011719-.140625.089844m-.570312.332031c-.042969.023437-.074219.039063-.070313.039063.007813 0 .15625-.074219.15625-.078126 0-.007812-.011719-.003906-.085937.039063m-.179688.082031c-.042969.023438-.078125.042969-.074219.042969.003907 0 .046875-.019531.09375-.042969.046875-.019531.078125-.039062.074219-.039062-.003906 0-.046875.019531-.09375.039062"/><path style="stroke:none;fill-rule:evenodd;fill:#72706f;fill-opacity:1" d="M7.523438 1.105469c-.089844.496093-.1875 1.089843-.183594 1.09375.019531.007812.191406.035156.195312.027343.003906-.003906.039063-.199218.082032-.433593.039062-.234375.074218-.425781.078124-.421875 0 0 .015626.203125.035157.449218.019531.300782.035156.449219.039062.453126.015625.007812.203125.039062.207031.035156.003907-.003906.085938-.191406.1875-.417969.101563-.226563.1875-.414063.1875-.410156 0 0-.03125.195312-.074218.429687-.039063.234375-.074219.433594-.070313.4375.003907.011719.1875.042969.195313.03125.011718-.011718.199218-1.097656.191406-1.105468-.007812-.007813-.324219-.0625-.328125-.058594 0 .003906-.074219.164062-.164063.363281-.140624.308594-.164062.355469-.171874.335937-.003907-.023437-.066407-.722656-.066407-.761718 0-.007813-.023437-.015625-.109375-.03125-.0625-.011719-.136718-.023438-.167968-.03125l-.058594-.007813-.003906.023438m-1.890626.046875c-.007812 0-.042968.007812-.074218.015625-.132813.03125-.234375.101562-.28125.199219-.03125.0625-.035156.175781-.003906.238281.023437.054687.089843.125.140624.148437.050782.027344.160157.050782.265626.058594.199218.015625.265624.03125.289062.082031.042969.078125-.015625.179688-.128906.214844-.066406.023437-.160156.023437-.207032 0-.042968-.023437-.085937-.074219-.109374-.121094-.015626-.039062-.003907-.039062-.140626 0-.074218.019531-.078124.023438-.078124.042969 0 .011719.011718.042969.023437.066406.089844.179688.242187.25.464844.214844.160156-.023438.273437-.074219.339843-.15625.109376-.128906.097657-.328125-.019531-.453125-.070312-.070313-.164062-.097656-.390625-.117187-.175781-.011719-.226562-.027344-.25-.074219-.019531-.035157-.015625-.0625.007813-.09375.050781-.058594.1875-.097657.265625-.078125.042968.011718.089844.050781.109375.09375.007812.023437.015625.035156.027343.03125.003907-.003906.046876-.011719.09375-.023438.105469-.023437.109376-.023437.109376-.039062 0-.03125-.0625-.136719-.09375-.167969-.019532-.015625-.0625-.042969-.09375-.058594-.050782-.023437-.0625-.023437-.152344-.027343-.050782 0-.105469 0-.113282.003906M9.03125 1.4375c-.113281.285156-.398438 1.039062-.394531 1.039062.011719.011719.792969.304688.796875.300782.007812-.007813.070312-.164063.066406-.167969 0 0-.132812-.050781-.292969-.113281-.160156-.0625-.292969-.113282-.292969-.113282-.003906-.003906.09375-.265624.105469-.28125.003907-.007812.089844.019532.265625.089844.144532.054688.265625.097656.269532.09375.003906-.007812.066406-.164062.0625-.167968 0 0-.113282-.042969-.25-.097657-.136719-.050781-.253907-.097656-.261719-.101562-.015625-.007813-.011719-.019531.03125-.125.023437-.0625.046875-.117188.050781-.113281.003906 0 .132812.046874.285156.105468.152344.058594.277344.109375.277344.109375.003906 0 .066406-.171875.0625-.175781-.003906-.003906-.765625-.300781-.773438-.300781 0 0-.003906.007812-.007812.019531m-4.761719.128906c-.050781.019532-.09375.035156-.097656.039063-.003906.003906.386719 1.046875.398437 1.058593 0 .003907.199219-.074218.203126-.078124.007812-.007813-.398438-1.058594-.40625-1.058594-.003907 0-.050782.019531-.097657.039062m-1.015625.519532c-.191406.117187-.359375.226562-.378906.238281-.035156.023437-.039062.015625.03125.121093l.035156.058594.140625-.089844c.078125-.050781.144531-.089843.144531-.085937 0 0 .109376.175781.242188.386719.128906.214844.242188.394531.25.398437.007812.011719.023438.003907.101562-.042969.050782-.03125.09375-.058593.09375-.0625 0 0-.109374-.179687-.246093-.402343-.136719-.21875-.25-.402344-.25-.402344.003906 0 .0625-.039063.136719-.085937.074218-.042969.136718-.085938.136718-.089844.003906-.007813-.074218-.148438-.089844-.15625 0 0-.160156.09375-.347656.214844m6.757813.160156c-.234375.375-.269531.449218-.277344.546875-.007813.078125.015625.160156.066406.226562.066407.09375.242188.207031.363281.238281.0625.015626.152344.011719.203126-.011718.101562-.042969.152343-.109375.40625-.519532l.1875-.296874L10.875 2.375c-.046875-.03125-.089844-.058594-.097656-.058594-.003906-.003906-.066406.082032-.171875.253906-.277344.449219-.285157.460938-.359375.476563-.128906.03125-.300782-.109375-.285156-.238281.007812-.054688.03125-.101563.242187-.4375.101563-.167969.183594-.304688.183594-.304688-.011719-.007812-.183594-.113281-.1875-.113281 0 0-.085938.132813-.1875.292969m-3.554688-.140625c0 .113281 0 .113281.019531.105469.007813 0 .054688-.003907.105469-.003907h.085938v-.210937h-.210938v.109375m-1.445312.167969c-.046875.015624-.089844.03125-.089844.03125-.003906.003906.0625.199218.066406.199218.007813 0 .050781-.011718.105469-.03125l.09375-.03125-.03125-.097656c-.019531-.0625-.035156-.097656-.042969-.101562-.007812 0-.050781.015624-.101562.03125m-.832031.347656-.097657.042968.027344.050782c.015625.027344.035156.074218.046875.097656l.019531.046875.195313-.09375-.046875-.09375c-.027344-.050781-.046875-.09375-.046875-.097656-.003906 0-.046875.019531-.097656.046875m4.359374.039062c.296876.101563.492188.183594.746094.316406.425782.21875.78125.460938 1.179688.808594.113281.097656.378906.371094.507812.523438.417969.484375.753906 1.046875.972656 1.628906.03125.078125.058594.152344.0625.164062.007813.015626.007813.019532-.042968.019532-.03125.003906-.003906.003906.058594.003906.066406 0 .097656 0 .078124-.003906-.039062-.003906-.039062-.003906-.058593-.058594-.089844-.246094-.148438-.382812-.257813-.601562-.078125-.160157-.089844-.179688-.148437-.285157-.367188-.640625-.867188-1.210937-1.441407-1.652343-.433593-.332032-.898437-.589844-1.40625-.785157-.125-.046875-.378906-.132812-.394531-.132812-.007812 0 .058594.023437.144531.054687m-6.394531.265625c-.042969.042969-.078125.078125-.078125.082031 0 .003907.621094.679688.738282.800782l.027343.027344.164063-.15625-.351563-.378907c-.191406-.207031-.367187-.390625-.386719-.410156l-.035156-.039063-.078125.074219m9.0625 0c-.210937.058594-.425781.277344-.480469.492188-.042968.167969 0 .328125.117188.457031.160156.171875.347656.214844.542969.128906.082031-.039062.082031-.035156.03125-.125-.074219-.132812-.058594-.121094-.125-.085937-.109375.054687-.203125.046875-.285157-.027344-.023437-.019531-.046874-.050781-.0625-.085937-.0625-.128907-.011718-.265626.160157-.433594.125-.117188.234375-.15625.339843-.113282.054688.019532.117188.070313.148438.125.019531.035157.023438.050782.023438.113282 0 .050781-.003907.078125-.015626.097656l-.015624.027344.101562.054687c.054688.03125.101562.054688.101562.050781.003907-.003906.015626-.035156.03125-.074218.0625-.195313-.023437-.402344-.21875-.53125-.085937-.058594-.152343-.078125-.253906-.082032-.066406 0-.109375 0-.140625.011719m-8.101562.382813c-.042969.03125-.078125.0625-.078125.0625-.003906.003906.121094.167968.128906.167968.003906 0 .039062-.027343.085938-.0625l.082031-.066406-.0625-.082031c-.035157-.042969-.066407-.082031-.070313-.082031-.003906 0-.042968.027344-.085937.0625m8.953125.621094c-.097656.019531-.21875.078124-.320313.152343-.101562.078125-.164062.160157-.207031.269531-.019531.050782-.023438.070313-.023438.164063 0 .097656 0 .109375.023438.171875.054688.128906.148438.242188.253906.292969.066406.03125.15625.046875.21875.039062.066406-.007812.132813-.023437.136719-.03125.003906-.003906-.046875-.199219-.054687-.210937-.003907-.003906-.023438 0-.046876.007812-.058593.015625-.148437.011719-.195312-.011718-.046875-.023438-.085938-.066407-.113281-.117188-.019531-.035156-.019531-.054688-.019531-.113281 0-.0625 0-.082031.019531-.113281.058593-.113282.273437-.261719.410156-.289063.15625-.027344.308594.101563.304687.265625 0 .046875-.019531.101562-.050781.148438-.015625.015624-.011719.019531.070313.09375l.082031.078124.03125-.039062c.058594-.085938.082031-.148438.082031-.25 0-.101562-.039062-.207031-.113281-.308594-.113281-.152344-.308594-.234375-.488281-.199218m.382812 1.164062c-.269531.136719-.496094.253906-.496094.257812-.003906.003907.082032.1875.09375.199219 0 0 .226563-.113281.503907-.253906l.5-.257813-.046875-.101562c-.027344-.054688-.054688-.097656-.058594-.097656-.003906 0-.226562.113281-.496094.253906m-11.949218.125c.882812.59375 1.394531.992188 1.996093 1.5625.164063.160156.308594.3125.441407.480469.058593.074219.109374.132812.113281.132812.011719 0 .210937.25.3125.390625.1875.265625.332031.527344.429687.78125.015625.039063.035156.09375.046875.117188.042969.105468.09375.320312.117188.476562.019531.113282.015625.484375-.003907.589844-.046874.253906-.121093.453125-.253906.679688l-.054687.09375.0625-.066407c.148437-.144531.335937-.386719.445312-.566406.070313-.121094.183594-.339844.1875-.371094.003907-.015625.015625-.058593.03125-.097656.035157-.089844.0625-.195313.082031-.292969.019532-.105468.019532-.40625 0-.519531-.039062-.203125-.128906-.523437-.148437-.53125-.007813 0-.019531-.019531-.027344-.039063-.046875-.164062-.199219-.464843-.339843-.679687-.117188-.179687-.390626-.53125-.414063-.535156-.007813-.003907-.058594-.0625-.113281-.128907-.269532-.339843-.574219-.652343-.941406-.960937-.070313-.0625-.097657-.082031-.128907-.089844C2 5.5625.808594 5.207031.371094 5.058594c-.113282-.035156-.207032-.066406-.210938-.066406-.003906 0 .144532.101562.332032.226562m10.984374.90625c.027344.003906.074219.003906.105469 0H11.476562m3.105469.445312c-.375.027344-.441406.035157-.472656.046876-.453125.207031-1.417969.691406-2.601563 1.304687-1.3125.679687-2.128906 1.085937-2.816406 1.394531-1.835937.828125-3.460937 1.320313-5.1875 1.570313l-.15625.023437-.15625.15625c-.15625.148438-.28125.261719-.417968.359375-.085938.0625-.097657.078125-.046876.074219.835938-.113281 1.269532-.1875 1.753907-.296875 1.0625-.234375 2.109375-.589844 3.328125-1.128906.949218-.421875 1.660156-.769531 3.402344-1.675781.914062-.472657 1.101562-.566407 1.105468-.550782.011719.023438-.011718.5-.027344.667969-.125 1.183594-.605468 2.269531-1.402343 3.15625-.28125.316406-.675781.660156-1.023438.890625-.121093.082031-.285156.1875-.34375.21875-.300781.164062-.425781.226562-.671875.328125-.082031.03125-.222656.082031-.308594.113281-.085937.027344-.148437.054688-.144531.054688.019531 0 .332031-.109375.476563-.164063.9375-.375 1.785156-1.019531 2.386718-1.832031.617188-.828125.980469-1.765625 1.082032-2.800781.019531-.160157.035156-.546875.027344-.617188-.007813-.046875-.003907-.050781.015624-.0625.03125-.019531.71875-.359375.976563-.480469.691406-.328124 1.292969-.59375 1.683594-.738281.054687-.019531.101562-.039062.101562-.042969.011719-.007812-.164062.003907-.5625.03125M12.46875 8.863281c-.007812.023438-.183594.804688-.179688.808594.007813.007813 1.089844.253906 1.09375.246094.003907-.003907.195313-.828125.191407-.832031 0 0-.039063-.011719-.089844-.023438l-.089844-.019531-.070312.308593c-.039063.167969-.070313.304688-.074219.308594-.003906.007813-.289062-.0625-.292969-.074218-.003906-.003907.023438-.125.054688-.269532.03125-.144531.058593-.265625.058593-.269531 0-.015625-.164062-.054687-.175781-.042969-.003906.003906-.03125.128906-.066406.273438-.035156.148437-.0625.269531-.0625.269531-.003906.003906-.058594-.007813-.121094-.023437-.085937-.019532-.121093-.03125-.121093-.039063s.027343-.136719.0625-.285156c.035156-.148438.0625-.28125.066406-.289063 0-.015625-.007813-.019531-.082032-.035156-.101562-.023438-.09375-.023438-.101562-.011719m-.230469.914063c-.058593.140625-.289062.722656-.289062.726562 0 .007813.039062.027344.085937.042969l.082032.035156.074218-.1875c.042969-.101562.085938-.210937.101563-.246093.011719-.03125.023437-.054688.027343-.050782 0 0 .105469.1875.230469.414063l.222657.410156.097656.039063c.050781.023437.09375.039062.09375.039062.007812-.015625.335937-.835938.335937-.847656.003907-.007813-.160156-.082032-.164062-.074219-.003907 0-.054688.132813-.121094.292969-.0625.15625-.117187.289062-.121094.292968-.003906.003907-.113281-.1875-.242187-.425781l-.234375-.429687-.078125-.03125c-.039063-.015625-.078125-.03125-.082032-.03125-.003906 0-.011718.011718-.019531.03125m-.367187.886718c-.03125.046876-.054688.085938-.054688.089844 0 .003906.140625.097656.3125.207032.167969.113281.308594.207031.308594.207031-.003906.003906-.59375-.007813-.777344-.015625l-.101562-.007813-.058594.089844c-.03125.050781-.058594.09375-.058594.097656 0 .003907.648438.433594.925782.609375.019531.011719.019531.007813.066406-.066406.027344-.042969.054687-.082031.058594-.089844.003906-.003906-.09375-.074218-.304688-.210937-.167969-.109375-.304688-.203125-.304688-.203125.003907 0 .195313.003906.433594.007812.238282.003906.429688.011719.429688.007813.007812 0 .121094-.183594.121094-.1875 0-.003907-.160157-.109375-.355469-.238281-.195313-.128907-.40625-.265626-.472657-.308594l-.113281-.074219-.054687.085937m-.800782 1.105469c-.148437.179688-.269531.324219-.265624.324219 0 0 .1875.160156.417968.351562.230469.195313.425782.355469.433594.363282.011719.007812.042969-.023438.277344-.304688.144531-.175781.269531-.324218.273437-.332031.011719-.011719.003907-.019531-.058593-.074219l-.070313-.058594-.203125.238282c-.109375.132812-.203125.242187-.207031.242187 0 0-.042969-.03125-.089844-.074219-.050781-.039062-.101563-.082031-.117187-.097656-.023438-.019531-.027344-.023437-.015626-.039062.003907-.007813.085938-.105469.179688-.21875l.171875-.203125-.070313-.0625c-.042968-.03125-.078124-.058594-.082031-.054688 0 .003907-.082031.101563-.179687.21875-.097656.117188-.175782.210938-.179688.210938-.003906 0-.1875-.15625-.1875-.160157 0-.003906.085938-.113281.195313-.238281.105469-.128906.1875-.238281.1875-.238281-.03125-.027344-.132813-.109375-.136719-.109375-.003906 0-.128906.140625-.273438.316406m-.472656.507813c-.023437.011718-.074218.039062-.105468.058594-.074219.050781-.472657.375-.46875.382812 0 .003906.160156.203125.351562.445312.234375.289063.355469.433594.363281.429688.007813-.011719.160157-.132812.164063-.132812 0-.003907-.066406-.085938-.148438-.1875l-.148437-.1875.019531-.015626c.011719-.007812.042969-.03125.070312-.046874.078126-.054688.113282-.050782.457032.058593.078125.023438.144531.042969.148437.042969.011719 0 .195313-.144531.203125-.160156.003906-.003906-.0625-.03125-.144531-.058594-.25-.089844-.265625-.09375-.367187-.09375h-.089844c0-.003906.011718-.019531.027344-.035156.046874-.050782.070312-.117188.074218-.195313 0-.0625 0-.074219-.023437-.125-.03125-.070312-.097657-.136719-.160157-.167969-.070312-.035156-.15625-.039062-.222656-.011718m.03125.210937c-.015625.003907-.039062.015625-.054687.023438-.03125.019531-.230469.179687-.25.199219-.011719.007812.003906.03125.070312.113281.042969.054687.085938.105469.089844.113281.011719.007812.027344-.003906.109375-.066406.136719-.117188.191406-.171875.199219-.207032.027343-.09375-.070313-.199218-.164063-.175781m-.847656.363281c-.046875.03125-.089844.058594-.089844.0625-.003906.003907.601563.945313.613282.945313.003906.003906.164062-.09375.183593-.113281.003907-.003906-.609375-.953125-.613281-.953125-.003906 0-.046875.027343-.09375.058593m-.523438.28125c-.1875.089844-.34375.160157-.347656.164063-.003906 0 .101563.234375.230469.515625l.238281.515625.035156-.015625c.019532-.007812.0625-.03125.101563-.046875l.070313-.035156-.101563-.214844c-.054687-.117187-.101563-.21875-.101563-.21875 0-.003906.097657-.050781.210938-.105469.117188-.050781.210938-.097656.210938-.101562 0-.003906-.015626-.042969-.035157-.085938l-.039062-.082031-.042969.019531c-.027344.011719-.121094.054688-.210938.097656-.089843.042969-.164062.078126-.171874.078126-.003907 0-.097657-.191407-.109376-.230469-.003906-.011719.027344-.03125.234376-.128907.132812-.058593.242187-.113281.246093-.117187.003907-.007813-.066406-.167969-.074219-.167969 0 0-.15625.070313-.34375.160156"/><path style="stroke:none;fill-rule:evenodd;fill:#72706f;fill-opacity:1" d="M7.523438 1.105469c-.089844.496093-.1875 1.089843-.183594 1.09375.019531.007812.191406.035156.195312.027343.003906-.003906.039063-.199218.082032-.433593.039062-.234375.074218-.425781.078124-.421875 0 0 .015626.203125.035157.449218.019531.300782.035156.449219.039062.453126.015625.007812.203125.039062.207031.035156.003907-.003906.085938-.191406.1875-.417969.101563-.226563.1875-.414063.1875-.410156 0 0-.03125.195312-.074218.429687-.039063.234375-.074219.433594-.070313.4375.003907.011719.1875.042969.195313.03125.011718-.011718.199218-1.097656.191406-1.105468-.007812-.007813-.324219-.0625-.328125-.058594 0 .003906-.074219.164062-.164063.363281-.140624.308594-.164062.355469-.171874.335937-.003907-.023437-.066407-.722656-.066407-.761718 0-.007813-.023437-.015625-.109375-.03125-.0625-.011719-.136718-.023438-.167968-.03125l-.058594-.007813-.003906.023438m-1.890626.046875c-.007812 0-.042968.007812-.074218.015625-.132813.03125-.234375.101562-.28125.199219-.03125.0625-.035156.175781-.003906.238281.023437.054687.089843.125.140624.148437.050782.027344.160157.050782.265626.058594.199218.015625.265624.03125.289062.082031.042969.078125-.015625.179688-.128906.214844-.066406.023437-.160156.023437-.207032 0-.042968-.023437-.085937-.074219-.109374-.121094-.015626-.039062-.003907-.039062-.140626 0-.074218.019531-.078124.023438-.078124.042969 0 .011719.011718.042969.023437.066406.089844.179688.242187.25.464844.214844.160156-.023438.273437-.074219.339843-.15625.109376-.128906.097657-.328125-.019531-.453125-.070312-.070313-.164062-.097656-.390625-.117187-.175781-.011719-.226562-.027344-.25-.074219-.019531-.035157-.015625-.0625.007813-.09375.050781-.058594.1875-.097657.265625-.078125.042968.011718.089844.050781.109375.09375.007812.023437.015625.035156.027343.03125.003907-.003906.046876-.011719.09375-.023438.105469-.023437.109376-.023437.109376-.039062 0-.03125-.0625-.136719-.09375-.167969-.019532-.015625-.0625-.042969-.09375-.058594-.050782-.023437-.0625-.023437-.152344-.027343-.050782 0-.105469 0-.113282.003906M9.03125 1.4375c-.113281.285156-.398438 1.039062-.394531 1.039062.011719.011719.792969.304688.796875.300782.007812-.007813.070312-.164063.066406-.167969 0 0-.132812-.050781-.292969-.113281-.160156-.0625-.292969-.113282-.292969-.113282-.003906-.003906.09375-.265624.105469-.28125.003907-.007812.089844.019532.265625.089844.144532.054688.265625.097656.269532.09375.003906-.007812.066406-.164062.0625-.167968 0 0-.113282-.042969-.25-.097657-.136719-.050781-.253907-.097656-.261719-.101562-.015625-.007813-.011719-.019531.03125-.125.023437-.0625.046875-.117188.050781-.113281.003906 0 .132812.046874.285156.105468.152344.058594.277344.109375.277344.109375.003906 0 .066406-.171875.0625-.175781-.003906-.003906-.765625-.300781-.773438-.300781 0 0-.003906.007812-.007812.019531m-4.761719.128906c-.050781.019532-.09375.035156-.097656.039063-.003906.003906.386719 1.046875.398437 1.058593 0 .003907.199219-.074218.203126-.078124.007812-.007813-.398438-1.058594-.40625-1.058594-.003907 0-.050782.019531-.097657.039062m-1.015625.519532c-.191406.117187-.359375.226562-.378906.238281-.035156.023437-.039062.015625.03125.121093l.035156.058594.140625-.089844c.078125-.050781.144531-.089843.144531-.085937 0 0 .109376.175781.242188.386719.128906.214844.242188.394531.25.398437.007812.011719.023438.003907.101562-.042969.050782-.03125.09375-.058593.09375-.0625 0 0-.109374-.179687-.246093-.402343-.136719-.21875-.25-.402344-.25-.402344.003906 0 .0625-.039063.136719-.085937.074218-.042969.136718-.085938.136718-.089844.003906-.007813-.074218-.148438-.089844-.15625 0 0-.160156.09375-.347656.214844m6.757813.160156c-.234375.375-.269531.449218-.277344.546875-.007813.078125.015625.160156.066406.226562.066407.09375.242188.207031.363281.238281.0625.015626.152344.011719.203126-.011718.101562-.042969.152343-.109375.40625-.519532l.1875-.296874L10.875 2.375c-.046875-.03125-.089844-.058594-.097656-.058594-.003906-.003906-.066406.082032-.171875.253906-.277344.449219-.285157.460938-.359375.476563-.128906.03125-.300782-.109375-.285156-.238281.007812-.054688.03125-.101563.242187-.4375.101563-.167969.183594-.304688.183594-.304688-.011719-.007812-.183594-.113281-.1875-.113281 0 0-.085938.132813-.1875.292969m-3.554688-.140625c0 .113281 0 .113281.019531.105469.007813 0 .054688-.003907.105469-.003907h.085938v-.210937h-.210938v.109375m-1.445312.167969c-.046875.015624-.089844.03125-.089844.03125-.003906.003906.0625.199218.066406.199218.007813 0 .050781-.011718.105469-.03125l.09375-.03125-.03125-.097656c-.019531-.0625-.035156-.097656-.042969-.101562-.007812 0-.050781.015624-.101562.03125m-.832031.347656-.097657.042968.027344.050782c.015625.027344.035156.074218.046875.097656l.019531.046875.195313-.09375-.046875-.09375c-.027344-.050781-.046875-.09375-.046875-.097656-.003906 0-.046875.019531-.097656.046875m4.359374.039062c.296876.101563.492188.183594.746094.316406.425782.21875.78125.460938 1.179688.808594.113281.097656.378906.371094.507812.523438.417969.484375.753906 1.046875.972656 1.628906.03125.078125.058594.152344.0625.164062.007813.015626.007813.019532-.042968.019532-.03125.003906-.003906.003906.058594.003906.066406 0 .097656 0 .078124-.003906-.039062-.003906-.039062-.003906-.058593-.058594-.089844-.246094-.148438-.382812-.257813-.601562-.078125-.160157-.089844-.179688-.148437-.285157-.367188-.640625-.867188-1.210937-1.441407-1.652343-.433593-.332032-.898437-.589844-1.40625-.785157-.125-.046875-.378906-.132812-.394531-.132812-.007812 0 .058594.023437.144531.054687m-6.394531.265625c-.042969.042969-.078125.078125-.078125.082031 0 .003907.621094.679688.738282.800782l.027343.027344.164063-.15625-.351563-.378907c-.191406-.207031-.367187-.390625-.386719-.410156l-.035156-.039063-.078125.074219m9.0625 0c-.210937.058594-.425781.277344-.480469.492188-.042968.167969 0 .328125.117188.457031.160156.171875.347656.214844.542969.128906.082031-.039062.082031-.035156.03125-.125-.074219-.132812-.058594-.121094-.125-.085937-.109375.054687-.203125.046875-.285157-.027344-.023437-.019531-.046874-.050781-.0625-.085937-.0625-.128907-.011718-.265626.160157-.433594.125-.117188.234375-.15625.339843-.113282.054688.019532.117188.070313.148438.125.019531.035157.023438.050782.023438.113282 0 .050781-.003907.078125-.015626.097656l-.015624.027344.101562.054687c.054688.03125.101562.054688.101562.050781.003907-.003906.015626-.035156.03125-.074218.0625-.195313-.023437-.402344-.21875-.53125-.085937-.058594-.152343-.078125-.253906-.082032-.066406 0-.109375 0-.140625.011719m-8.101562.382813c-.042969.03125-.078125.0625-.078125.0625-.003906.003906.121094.167968.128906.167968.003906 0 .039062-.027343.085938-.0625l.082031-.066406-.0625-.082031c-.035157-.042969-.066407-.082031-.070313-.082031-.003906 0-.042968.027344-.085937.0625m8.953125.621094c-.097656.019531-.21875.078124-.320313.152343-.101562.078125-.164062.160157-.207031.269531-.019531.050782-.023438.070313-.023438.164063 0 .097656 0 .109375.023438.171875.054688.128906.148438.242188.253906.292969.066406.03125.15625.046875.21875.039062.066406-.007812.132813-.023437.136719-.03125.003906-.003906-.046875-.199219-.054687-.210937-.003907-.003906-.023438 0-.046876.007812-.058593.015625-.148437.011719-.195312-.011718-.046875-.023438-.085938-.066407-.113281-.117188-.019531-.035156-.019531-.054688-.019531-.113281 0-.0625 0-.082031.019531-.113281.058593-.113282.273437-.261719.410156-.289063.15625-.027344.308594.101563.304687.265625 0 .046875-.019531.101562-.050781.148438-.015625.015624-.011719.019531.070313.09375l.082031.078124.03125-.039062c.058594-.085938.082031-.148438.082031-.25 0-.101562-.039062-.207031-.113281-.308594-.113281-.152344-.308594-.234375-.488281-.199218m.382812 1.164062c-.269531.136719-.496094.253906-.496094.257812-.003906.003907.082032.1875.09375.199219 0 0 .226563-.113281.503907-.253906l.5-.257813-.046875-.101562c-.027344-.054688-.054688-.097656-.058594-.097656-.003906 0-.226562.113281-.496094.253906m-11.949218.125c.882812.59375 1.394531.992188 1.996093 1.5625.164063.160156.308594.3125.441407.480469.058593.074219.109374.132812.113281.132812.011719 0 .210937.25.3125.390625.1875.265625.332031.527344.429687.78125.015625.039063.035156.09375.046875.117188.042969.105468.09375.320312.117188.476562.019531.113282.015625.484375-.003907.589844-.046874.253906-.121093.453125-.253906.679688l-.054687.09375.0625-.066407c.148437-.144531.335937-.386719.445312-.566406.070313-.121094.183594-.339844.1875-.371094.003907-.015625.015625-.058593.03125-.097656.035157-.089844.0625-.195313.082031-.292969.019532-.105468.019532-.40625 0-.519531-.039062-.203125-.128906-.523437-.148437-.53125-.007813 0-.019531-.019531-.027344-.039063-.046875-.164062-.199219-.464843-.339843-.679687-.117188-.179687-.390626-.53125-.414063-.535156-.007813-.003907-.058594-.0625-.113281-.128907-.269532-.339843-.574219-.652343-.941406-.960937-.070313-.0625-.097657-.082031-.128907-.089844C2 5.5625.808594 5.207031.371094 5.058594c-.113282-.035156-.207032-.066406-.210938-.066406-.003906 0 .144532.101562.332032.226562m10.984374.90625c.027344.003906.074219.003906.105469 0H11.476562m3.105469.445312c-.375.027344-.441406.035157-.472656.046876-.453125.207031-1.417969.691406-2.601563 1.304687-1.3125.679687-2.128906 1.085937-2.816406 1.394531-1.835937.828125-3.460937 1.320313-5.1875 1.570313l-.15625.023437-.15625.15625c-.15625.148438-.28125.261719-.417968.359375-.085938.0625-.097657.078125-.046876.074219.835938-.113281 1.269532-.1875 1.753907-.296875 1.0625-.234375 2.109375-.589844 3.328125-1.128906.949218-.421875 1.660156-.769531 3.402344-1.675781.914062-.472657 1.101562-.566407 1.105468-.550782.011719.023438-.011718.5-.027344.667969-.125 1.183594-.605468 2.269531-1.402343 3.15625-.28125.316406-.675781.660156-1.023438.890625-.121093.082031-.285156.1875-.34375.21875-.300781.164062-.425781.226562-.671875.328125-.082031.03125-.222656.082031-.308594.113281-.085937.027344-.148437.054688-.144531.054688.019531 0 .332031-.109375.476563-.164063.9375-.375 1.785156-1.019531 2.386718-1.832031.617188-.828125.980469-1.765625 1.082032-2.800781.019531-.160157.035156-.546875.027344-.617188-.007813-.046875-.003907-.050781.015624-.0625.03125-.019531.71875-.359375.976563-.480469.691406-.328124 1.292969-.59375 1.683594-.738281.054687-.019531.101562-.039062.101562-.042969.011719-.007812-.164062.003907-.5625.03125M12.46875 8.863281c-.007812.023438-.183594.804688-.179688.808594.007813.007813 1.089844.253906 1.09375.246094.003907-.003907.195313-.828125.191407-.832031 0 0-.039063-.011719-.089844-.023438l-.089844-.019531-.070312.308593c-.039063.167969-.070313.304688-.074219.308594-.003906.007813-.289062-.0625-.292969-.074218-.003906-.003907.023438-.125.054688-.269532.03125-.144531.058593-.265625.058593-.269531 0-.015625-.164062-.054687-.175781-.042969-.003906.003906-.03125.128906-.066406.273438-.035156.148437-.0625.269531-.0625.269531-.003906.003906-.058594-.007813-.121094-.023437-.085937-.019532-.121093-.03125-.121093-.039063s.027343-.136719.0625-.285156c.035156-.148438.0625-.28125.066406-.289063 0-.015625-.007813-.019531-.082032-.035156-.101562-.023438-.09375-.023438-.101562-.011719m-.230469.914063c-.058593.140625-.289062.722656-.289062.726562 0 .007813.039062.027344.085937.042969l.082032.035156.074218-.1875c.042969-.101562.085938-.210937.101563-.246093.011719-.03125.023437-.054688.027343-.050782 0 0 .105469.1875.230469.414063l.222657.410156.097656.039063c.050781.023437.09375.039062.09375.039062.007812-.015625.335937-.835938.335937-.847656.003907-.007813-.160156-.082032-.164062-.074219-.003907 0-.054688.132813-.121094.292969-.0625.15625-.117187.289062-.121094.292968-.003906.003907-.113281-.1875-.242187-.425781l-.234375-.429687-.078125-.03125c-.039063-.015625-.078125-.03125-.082032-.03125-.003906 0-.011718.011718-.019531.03125m-.367187.886718c-.03125.046876-.054688.085938-.054688.089844 0 .003906.140625.097656.3125.207032.167969.113281.308594.207031.308594.207031-.003906.003906-.59375-.007813-.777344-.015625l-.101562-.007813-.058594.089844c-.03125.050781-.058594.09375-.058594.097656 0 .003907.648438.433594.925782.609375.019531.011719.019531.007813.066406-.066406.027344-.042969.054687-.082031.058594-.089844.003906-.003906-.09375-.074218-.304688-.210937-.167969-.109375-.304688-.203125-.304688-.203125.003907 0 .195313.003906.433594.007812.238282.003906.429688.011719.429688.007813.007812 0 .121094-.183594.121094-.1875 0-.003907-.160157-.109375-.355469-.238281-.195313-.128907-.40625-.265626-.472657-.308594l-.113281-.074219-.054687.085937m-.800782 1.105469c-.148437.179688-.269531.324219-.265624.324219 0 0 .1875.160156.417968.351562.230469.195313.425782.355469.433594.363282.011719.007812.042969-.023438.277344-.304688.144531-.175781.269531-.324218.273437-.332031.011719-.011719.003907-.019531-.058593-.074219l-.070313-.058594-.203125.238282c-.109375.132812-.203125.242187-.207031.242187 0 0-.042969-.03125-.089844-.074219-.050781-.039062-.101563-.082031-.117187-.097656-.023438-.019531-.027344-.023437-.015626-.039062.003907-.007813.085938-.105469.179688-.21875l.171875-.203125-.070313-.0625c-.042968-.03125-.078124-.058594-.082031-.054688 0 .003907-.082031.101563-.179687.21875-.097656.117188-.175782.210938-.179688.210938-.003906 0-.1875-.15625-.1875-.160157 0-.003906.085938-.113281.195313-.238281.105469-.128906.1875-.238281.1875-.238281-.03125-.027344-.132813-.109375-.136719-.109375-.003906 0-.128906.140625-.273438.316406m-.472656.507813c-.023437.011718-.074218.039062-.105468.058594-.074219.050781-.472657.375-.46875.382812 0 .003906.160156.203125.351562.445312.234375.289063.355469.433594.363281.429688.007813-.011719.160157-.132812.164063-.132812 0-.003907-.066406-.085938-.148438-.1875l-.148437-.1875.019531-.015626c.011719-.007812.042969-.03125.070312-.046874.078126-.054688.113282-.050782.457032.058593.078125.023438.144531.042969.148437.042969.011719 0 .195313-.144531.203125-.160156.003906-.003906-.0625-.03125-.144531-.058594-.25-.089844-.265625-.09375-.367187-.09375h-.089844c0-.003906.011718-.019531.027344-.035156.046874-.050782.070312-.117188.074218-.195313 0-.0625 0-.074219-.023437-.125-.03125-.070312-.097657-.136719-.160157-.167969-.070312-.035156-.15625-.039062-.222656-.011718m.03125.210937c-.015625.003907-.039062.015625-.054687.023438-.03125.019531-.230469.179687-.25.199219-.011719.007812.003906.03125.070312.113281.042969.054687.085938.105469.089844.113281.011719.007812.027344-.003906.109375-.066406.136719-.117188.191406-.171875.199219-.207032.027343-.09375-.070313-.199218-.164063-.175781m-.847656.363281c-.046875.03125-.089844.058594-.089844.0625-.003906.003907.601563.945313.613282.945313.003906.003906.164062-.09375.183593-.113281.003907-.003906-.609375-.953125-.613281-.953125-.003906 0-.046875.027343-.09375.058593m-.523438.28125c-.1875.089844-.34375.160157-.347656.164063-.003906 0 .101563.234375.230469.515625l.238281.515625.035156-.015625c.019532-.007812.0625-.03125.101563-.046875l.070313-.035156-.101563-.214844c-.054687-.117187-.101563-.21875-.101563-.21875 0-.003906.097657-.050781.210938-.105469.117188-.050781.210938-.097656.210938-.101562 0-.003906-.015626-.042969-.035157-.085938l-.039062-.082031-.042969.019531c-.027344.011719-.121094.054688-.210938.097656-.089843.042969-.164062.078126-.171874.078126-.003907 0-.097657-.191407-.109376-.230469-.003906-.011719.027344-.03125.234376-.128907.132812-.058593.242187-.113281.246093-.117187.003907-.007813-.066406-.167969-.074219-.167969 0 0-.15625.070313-.34375.160156"/><path style="stroke:none;fill-rule:evenodd;fill:#c4c4c2;fill-opacity:1" d="M6.449219 2.078125c0 .050781.003906.070313.003906.046875.003906-.023438.003906-.066406 0-.089844 0-.023437-.003906-.003906-.003906.042969m.21875.089844v.039062l-.097657.003907h-.09375l.09375.003906c.109376 0 .109376 0 .101563-.054688-.003906-.03125-.003906-.03125-.003906.007813m4.292969 3.949219c.027343.003906.074218.003906.101562 0h-.101562m1.632812 0c.027344.003906.070312.003906.097656 0H12.59375m-.894531.007812c.039062.003906.105469.003906.148437 0H11.699219m-9.097657.777344c.058594.054687.105469.101562.105469.101562.003907 0-.039062-.046875-.09375-.101562-.058593-.058594-.105469-.101563-.105469-.101563-.003906 0 .039063.042969.09375.101563m9.710938 1.03125.003906.101562.003906-.09375c0-.050781-.003906-.09375-.003906-.097656-.003906-.003906-.007812.035156-.003906.089844"/></svg>